<svg width="7" height="13" viewBox="0 0 7 13" fill="none" xmlns="http://www.w3.org/2000/svg">
<path fill-rule="evenodd" clip-rule="evenodd" d="M6.73589 0.00192106L5.0568 -0.000514984C3.17058 -0.000514984 1.95199 1.25516 1.95199 3.1992V4.67386H0.263533C0.117639 4.67386 -0.000383019 4.7925 -0.000383019 4.93921V7.07663C-0.000383019 7.22272 0.117911 7.34137 0.263533 7.34137H1.95159V12.7343C1.95159 12.8807 2.06976 12.9997 2.21564 12.9997H4.41821C4.56383 12.9997 4.68212 12.8807 4.68212 12.7343V7.34137H6.65602C6.80164 7.34137 6.91993 7.22272 6.91993 7.07663L6.92072 4.93921C6.92072 4.86845 6.893 4.80165 6.84349 4.75195C6.79385 4.70162 6.72664 4.67386 6.65655 4.67386H4.68212V3.42337C4.68212 2.82223 4.82497 2.51724 5.60444 2.51724L6.73563 2.51663C6.88151 2.51663 6.99955 2.39797 6.99955 2.25158V0.267271C6.99955 0.120865 6.88151 0.0025301 6.73589 0.00192106Z" fill="#3B5998"/>
</svg>
