<svg width="30" height="26" viewBox="0 0 30 26" fill="none" xmlns="http://www.w3.org/2000/svg">
<path opacity="0.35" fill-rule="evenodd" clip-rule="evenodd" d="M24.375 13C24.375 13.425 24.3375 13.825 24.2875 14.225L26.925 16.2875C27.1625 16.475 27.225 16.8125 27.075 17.0875L24.575 21.4125C24.425 21.6875 24.1 21.8 23.8125 21.6875L20.7 20.4375C20.05 20.925 19.35 21.35 18.5875 21.6625L18.1125 24.975C18.075 25.275 17.8125 25.5 17.5 25.5H12.5C12.1875 25.5 11.925 25.275 11.8875 24.975L11.4125 21.6625C10.65 21.35 9.95 20.9375 9.3 20.4375L6.1875 21.6875C5.9125 21.7875 5.575 21.6875 5.425 21.4125L2.925 17.0875C2.775 16.8125 2.8375 16.475 3.075 16.2875L5.7125 14.225C5.6625 13.825 5.625 13.4125 5.625 13C5.625 12.5875 5.6625 12.175 5.7125 11.775L3.075 9.7125C2.8375 9.525 2.7625 9.1875 2.925 8.9125L5.425 4.5875C5.575 4.3125 5.9 4.2 6.1875 4.3125L9.3 5.5625C9.95 5.075 10.65 4.65 11.4125 4.3375L11.8875 1.025C11.925 0.725 12.1875 0.5 12.5 0.5H17.5C17.8125 0.5 18.075 0.725 18.1125 1.025L18.5875 4.3375C19.35 4.65 20.05 5.0625 20.7 5.5625L23.8125 4.3125C24.0875 4.2125 24.425 4.3125 24.575 4.5875L27.075 8.9125C27.225 9.1875 27.1625 9.525 26.925 9.7125L24.2875 11.775C24.3375 12.175 24.375 12.575 24.375 13ZM10.625 13C10.625 15.4125 12.5875 17.375 15 17.375C17.4125 17.375 19.375 15.4125 19.375 13C19.375 10.5875 17.4125 8.625 15 8.625C12.5875 8.625 10.625 10.5875 10.625 13Z" fill="white"/>
</svg>
