<svg width="12" height="10" viewBox="0 0 12 10" fill="none" xmlns="http://www.w3.org/2000/svg">
<path fill-rule="evenodd" clip-rule="evenodd" d="M11.6688 0.184281C11.1927 0.473725 10.6654 0.683565 10.1044 0.797323C9.65529 0.305974 9.01628 -0.000546515 8.30785 -0.000546515C6.948 -0.000546515 5.84573 1.13039 5.84573 2.52422C5.84573 2.72186 5.86764 2.91492 5.90962 3.09914C3.86392 2.99392 2.04964 1.98864 0.835676 0.461225C0.623645 0.833618 0.502699 1.26733 0.502699 1.73001C0.502699 2.60657 0.937587 3.37974 1.59745 3.83174C1.19411 3.81802 0.814683 3.70395 0.482502 3.51515V3.54626C0.482502 4.76992 1.33129 5.78952 2.45705 6.02284C2.25057 6.08018 2.03326 6.11098 1.8083 6.11098C1.64933 6.11098 1.49579 6.09482 1.34476 6.06554C1.65831 7.06868 2.56717 7.79853 3.64409 7.81927C2.80178 8.49637 1.73991 8.89957 0.586804 8.89957C0.387841 8.89957 0.192185 8.88798 -0.000567973 8.86541C1.08929 9.58093 2.38247 9.99939 3.77334 9.99939C8.30138 9.99939 10.7774 6.15155 10.7774 2.81488L10.7693 2.48823C11.252 2.13321 11.6701 1.68853 11.9995 1.18254C11.5579 1.38323 11.0842 1.51956 10.5862 1.58055C11.0945 1.26794 11.4842 0.772322 11.6688 0.184281Z" fill="black" fill-opacity="0.01"/>
<path fill-rule="evenodd" clip-rule="evenodd" d="M11.6688 0.184281C11.1927 0.473725 10.6654 0.683565 10.1044 0.797323C9.65529 0.305974 9.01628 -0.000546515 8.30785 -0.000546515C6.948 -0.000546515 5.84573 1.13039 5.84573 2.52422C5.84573 2.72186 5.86764 2.91492 5.90962 3.09914C3.86392 2.99392 2.04964 1.98864 0.835676 0.461225C0.623645 0.833618 0.502699 1.26733 0.502699 1.73001C0.502699 2.60657 0.937587 3.37974 1.59745 3.83174C1.19411 3.81802 0.814683 3.70395 0.482502 3.51515V3.54626C0.482502 4.76992 1.33129 5.78952 2.45705 6.02284C2.25057 6.08018 2.03326 6.11098 1.8083 6.11098C1.64933 6.11098 1.49579 6.09482 1.34476 6.06554C1.65831 7.06868 2.56717 7.79853 3.64409 7.81927C2.80178 8.49637 1.73991 8.89957 0.586804 8.89957C0.387841 8.89957 0.192185 8.88798 -0.000567973 8.86541C1.08929 9.58093 2.38247 9.99939 3.77334 9.99939C8.30138 9.99939 10.7774 6.15155 10.7774 2.81488L10.7693 2.48823C11.252 2.13321 11.6701 1.68853 11.9995 1.18254C11.5579 1.38323 11.0842 1.51956 10.5862 1.58055C11.0945 1.26794 11.4842 0.772322 11.6688 0.184281Z" fill="#55ACEE"/>
</svg>
